<style>
#i{
color: #003800;
}
</style>
<svg id="svg" xmlns="http://www.w3.org/2000/svg" xmlns:xlink="http://www.w3.org/1999/xlink" width="400" height="400" viewBox="0, 0, 400,400">
<defs>
    <linearGradient id="gradient">
    <stop offset="0%" stop-color="#00ff00" />
    <stop offset="30%" stop-color="#00c900" />
    <stop offset="40%" stop-color="#00a500" />
    <stop offset="60%" stop-color="#008d00" />
    <stop offset="80%" stop-color="#005f00" />
    <stop offset="100%" stop-color="#003800" />
    </linearGradient>
</defs>
<g id="svgg">
<path id="path0" d="M122.461 93.444 C 121.387 93.628,120.085 93.789,119.569 93.802 C 119.014 93.816,118.817 93.941,119.088 94.108 C 119.392 94.296,119.217 94.568,118.565 94.917 C 118.025 95.205,117.311 95.858,116.978 96.366 C 116.644 96.875,116.177 97.170,115.938 97.022 C 115.694 96.871,115.613 96.930,115.754 97.158 C 115.891 97.380,115.725 98.119,115.384 98.802 C 113.971 101.635,114.813 107.895,117.560 114.978 C 118.407 117.160,119.152 119.209,119.218 119.531 C 119.283 119.854,119.441 120.205,119.569 120.313 C 119.698 120.420,120.733 122.325,121.870 124.547 C 123.006 126.768,124.534 129.454,125.265 130.516 C 125.995 131.578,126.471 132.644,126.322 132.886 C 126.173 133.127,126.225 133.217,126.436 133.086 C 126.828 132.844,130.713 136.517,130.605 137.027 C 130.573 137.180,130.729 137.253,130.952 137.189 C 131.175 137.126,131.728 137.406,132.182 137.812 C 133.443 138.940,137.433 141.182,139.941 142.173 C 141.177 142.660,142.188 143.209,142.188 143.392 C 142.188 143.576,142.438 143.629,142.743 143.512 C 143.287 143.304,144.406 144.771,144.214 145.439 C 144.163 145.616,144.310 145.645,144.541 145.502 C 144.830 145.323,144.802 145.052,144.453 144.628 C 144.006 144.086,144.043 144.065,144.759 144.446 C 145.935 145.072,146.596 145.988,146.262 146.528 C 146.084 146.816,146.139 146.893,146.404 146.729 C 147.826 145.851,148.032 152.849,146.679 156.055 C 145.311 159.296,144.825 160.143,144.462 159.918 C 144.257 159.791,144.142 159.925,144.208 160.215 C 144.274 160.505,143.918 161.405,143.416 162.216 L 142.504 163.689 141.076 162.814 C 140.291 162.333,139.053 161.538,138.324 161.047 C 137.596 160.557,136.805 160.154,136.567 160.150 C 136.328 160.147,136.396 159.955,136.719 159.723 C 137.202 159.375,137.177 159.343,136.572 159.540 C 134.606 160.181,134.173 157.065,135.703 153.290 C 137.203 149.592,137.174 148.052,135.577 146.454 C 132.351 143.229,127.957 146.645,128.783 151.736 C 129.518 156.264,126.969 157.228,125.107 153.125 C 122.391 147.139,122.221 146.868,120.697 146.091 C 118.647 145.045,114.844 145.828,114.844 147.297 C 114.844 147.520,114.711 147.621,114.550 147.521 C 114.388 147.421,114.210 148.157,114.154 149.158 C 114.020 151.536,114.826 152.729,118.416 155.469 C 121.898 158.126,122.180 158.984,119.573 158.984 C 117.841 158.984,111.477 157.012,111.887 156.603 C 112.404 156.085,109.324 156.604,108.014 157.255 C 105.175 158.665,104.923 162.666,107.551 164.611 C 108.552 165.352,109.184 165.430,114.226 165.430 C 120.199 165.430,122.000 165.893,120.395 167.017 C 119.739 167.477,115.380 168.779,114.107 168.896 C 113.321 168.968,110.955 171.115,110.322 172.331 C 109.785 173.361,109.710 176.636,110.230 176.319 C 110.378 176.229,110.641 176.397,110.816 176.693 C 112.388 179.356,115.700 178.589,119.370 174.713 C 123.159 170.710,125.146 171.588,123.656 176.606 C 122.905 179.134,122.898 180.825,123.633 181.796 C 123.941 182.203,124.083 182.731,123.948 182.968 C 123.813 183.205,123.833 183.282,123.993 183.139 C 124.152 182.996,124.896 183.135,125.646 183.449 C 129.461 185.043,131.956 181.562,131.180 175.731 C 130.745 172.460,130.762 172.131,131.395 171.668 C 131.773 171.391,132.072 171.061,132.057 170.934 C 132.021 170.611,132.318 170.585,133.254 170.830 C 133.768 170.964,133.955 171.215,133.768 171.518 C 133.570 171.839,133.636 171.895,133.968 171.690 C 134.519 171.349,140.325 177.271,139.983 177.825 C 139.875 178.001,140.018 178.096,140.303 178.037 C 140.588 177.978,140.772 178.162,140.713 178.447 C 140.654 178.732,140.767 178.865,140.963 178.743 C 141.160 178.622,142.158 178.892,143.180 179.344 C 145.290 180.277,147.313 179.974,148.621 178.528 C 149.007 178.102,149.519 177.865,149.759 178.002 C 149.999 178.138,150.069 178.110,149.914 177.939 C 149.677 177.676,150.817 175.636,151.557 175.000 C 151.681 174.893,152.477 173.838,153.325 172.656 C 154.946 170.398,155.859 169.329,155.859 169.692 C 155.859 169.811,156.389 171.858,157.037 174.240 C 157.685 176.622,158.097 178.762,157.953 178.994 C 157.809 179.228,157.872 179.306,158.093 179.170 C 158.325 179.026,158.866 179.939,159.372 181.327 C 160.585 184.654,162.969 189.091,165.447 192.632 C 166.595 194.273,167.413 195.752,167.264 195.918 C 167.114 196.083,167.198 196.101,167.449 195.957 C 167.977 195.655,169.631 197.570,169.302 198.102 C 169.181 198.297,169.315 198.409,169.600 198.350 C 169.886 198.290,170.059 198.504,169.987 198.828 C 169.915 199.150,169.984 199.286,170.140 199.131 C 170.557 198.714,175.210 203.161,175.109 203.880 C 175.059 204.237,175.112 204.291,175.237 204.010 C 175.443 203.547,178.516 205.635,178.516 206.238 C 178.516 206.375,177.241 206.896,175.684 207.396 C 174.126 207.896,171.910 208.721,170.759 209.228 C 169.608 209.735,168.482 210.037,168.257 209.898 C 168.032 209.759,167.960 209.826,168.097 210.048 C 168.234 210.270,167.650 210.913,166.798 211.476 C 164.347 213.098,162.217 219.742,164.257 219.401 C 164.472 219.365,164.624 219.642,164.595 220.015 C 164.565 220.389,164.682 220.608,164.855 220.501 C 165.027 220.394,165.667 220.725,166.276 221.236 C 166.885 221.746,167.998 222.556,168.750 223.034 C 169.832 223.724,169.922 223.861,169.182 223.693 C 168.563 223.553,168.378 223.612,168.634 223.869 C 168.848 224.082,169.444 224.295,169.960 224.343 C 171.116 224.449,174.284 226.531,173.997 226.996 C 173.882 227.182,174.033 227.241,174.333 227.126 C 174.633 227.011,175.477 227.496,176.209 228.204 L 177.539 229.492 174.821 229.610 C 173.103 229.684,170.673 229.421,168.215 228.894 C 160.779 227.302,156.879 230.156,159.240 235.462 C 159.595 236.261,159.859 237.046,159.826 237.207 C 159.793 237.368,159.897 237.469,160.059 237.431 C 160.220 237.393,161.092 237.574,161.997 237.833 C 163.784 238.344,164.092 238.302,169.377 236.821 C 173.019 235.801,175.000 235.827,175.000 236.895 C 175.000 237.640,172.776 239.183,172.208 238.832 C 171.931 238.660,171.860 238.722,172.025 238.990 C 172.194 239.262,171.294 239.946,169.644 240.798 C 164.308 243.553,162.796 246.462,165.006 249.718 C 165.525 250.483,165.832 251.225,165.689 251.368 C 165.547 251.511,165.693 251.569,166.016 251.497 C 166.338 251.426,166.570 251.549,166.532 251.772 C 166.458 252.199,166.679 252.242,169.609 252.380 C 172.246 252.505,173.809 251.191,175.840 247.141 C 176.721 245.383,177.552 243.857,177.686 243.750 C 177.820 243.643,177.984 243.303,178.051 242.996 C 178.117 242.689,178.508 241.965,178.920 241.388 C 181.974 237.098,184.017 239.438,182.581 245.581 C 182.239 247.045,182.037 249.071,182.132 250.084 C 182.242 251.259,182.162 251.839,181.912 251.684 C 181.688 251.546,181.641 251.638,181.803 251.899 C 181.958 252.151,182.279 252.237,182.515 252.091 C 182.791 251.920,182.857 252.056,182.698 252.470 C 182.561 252.825,182.576 253.090,182.729 253.058 C 182.882 253.026,183.799 253.376,184.766 253.835 C 186.918 254.858,187.268 254.864,189.347 253.920 C 192.822 252.343,193.306 249.760,191.211 243.973 C 188.270 235.848,189.830 234.215,195.898 239.062 C 199.892 242.252,203.621 242.257,205.267 239.075 C 207.274 235.195,204.797 232.279,198.633 231.264 C 195.815 230.800,192.753 229.181,193.231 228.407 C 193.368 228.185,193.293 228.120,193.063 228.262 C 192.558 228.574,190.138 225.629,190.538 225.187 C 190.693 225.015,190.618 224.990,190.372 225.131 C 190.119 225.276,189.436 224.773,188.809 223.982 C 188.197 223.209,187.413 222.269,187.068 221.892 C 186.474 221.243,186.699 221.193,191.330 220.945 C 196.459 220.671,200.811 219.932,204.119 218.774 C 205.881 218.157,206.316 218.141,208.221 218.618 C 212.891 219.789,219.154 221.927,218.938 222.277 C 218.812 222.481,218.978 222.544,219.307 222.418 C 219.972 222.163,229.712 226.830,231.250 228.141 C 231.787 228.599,231.980 228.844,231.678 228.684 C 231.313 228.492,231.224 228.548,231.412 228.852 C 231.567 229.104,231.846 229.216,232.030 229.102 C 233.274 228.334,242.337 237.091,241.575 238.325 C 241.397 238.613,241.451 238.690,241.717 238.526 C 241.954 238.379,242.331 238.602,242.555 239.020 C 242.854 239.578,242.833 239.833,242.477 239.977 C 242.173 240.100,242.230 240.184,242.630 240.204 C 243.025 240.223,243.577 241.018,244.076 242.285 C 248.152 252.632,245.749 265.555,238.258 273.576 C 236.638 275.311,235.191 276.532,234.827 276.472 C 234.481 276.414,234.193 276.601,234.188 276.887 C 234.177 277.570,232.807 278.559,232.304 278.247 C 232.088 278.114,232.024 278.188,232.163 278.413 C 233.483 280.549,218.424 284.585,210.938 284.102 C 204.029 283.657,192.350 278.512,193.612 276.469 C 193.756 276.236,193.689 276.164,193.459 276.306 C 192.880 276.663,190.919 274.312,189.675 271.769 C 188.016 268.377,187.579 263.473,188.737 261.230 C 189.026 260.672,188.920 260.547,188.157 260.547 C 186.506 260.547,184.642 262.164,183.342 264.723 C 182.667 266.053,182.052 267.078,181.975 267.001 C 180.425 265.448,182.914 276.911,184.757 279.810 C 185.414 280.845,185.834 281.883,185.689 282.117 C 185.545 282.351,185.599 282.436,185.810 282.305 C 186.021 282.175,187.235 283.121,188.507 284.407 C 189.779 285.693,191.476 287.201,192.278 287.757 C 193.080 288.314,193.624 288.950,193.487 289.171 C 193.351 289.393,193.425 289.458,193.653 289.317 C 193.882 289.177,195.710 289.853,197.718 290.821 C 214.518 298.923,237.959 295.210,251.539 282.295 C 252.708 281.183,253.851 280.332,254.078 280.404 C 254.306 280.475,254.365 280.406,254.209 280.251 C 254.053 280.095,254.594 279.158,255.411 278.167 C 269.241 261.407,268.902 237.728,254.553 218.382 C 253.668 217.188,252.996 215.974,253.060 215.683 C 253.125 215.393,253.017 215.255,252.820 215.377 C 252.312 215.691,250.251 213.433,250.572 212.913 C 250.719 212.675,250.691 212.529,250.510 212.588 C 250.066 212.733,234.932 197.627,235.068 197.174 C 235.127 196.978,235.022 196.912,234.834 197.028 C 233.560 197.815,232.829 195.699,232.883 191.373 L 232.937 187.057 233.839 188.158 C 234.334 188.763,234.664 189.475,234.572 189.741 C 234.479 190.007,234.551 190.183,234.732 190.132 C 235.206 189.998,238.667 194.791,238.351 195.143 C 238.205 195.305,238.280 195.327,238.517 195.192 C 238.755 195.057,239.370 195.403,239.885 195.962 C 242.324 198.611,245.202 198.990,248.041 197.038 C 249.493 196.039,250.335 195.703,250.981 195.865 C 252.213 196.174,255.172 199.582,254.877 200.352 C 254.750 200.683,254.767 200.832,254.914 200.685 C 255.214 200.385,256.891 202.353,256.738 202.824 C 256.685 202.990,256.772 203.089,256.934 203.045 C 257.095 203.001,257.789 203.264,258.477 203.631 C 262.280 205.658,267.124 201.969,265.252 198.471 C 265.008 198.014,264.932 197.424,265.084 197.160 C 265.235 196.896,265.222 196.804,265.053 196.956 C 264.885 197.108,264.198 196.825,263.526 196.329 C 262.854 195.832,261.565 195.020,260.660 194.525 C 259.756 194.029,259.124 193.449,259.256 193.236 C 259.396 193.010,259.296 192.972,259.016 193.145 C 258.469 193.483,256.547 191.874,256.871 191.349 C 257.313 190.634,261.020 191.058,264.491 192.221 C 267.357 193.181,268.495 193.382,270.080 193.207 C 271.175 193.087,272.398 192.974,272.798 192.957 C 273.198 192.941,273.424 192.825,273.299 192.700 C 273.174 192.576,273.414 192.040,273.831 191.510 C 277.746 186.532,273.171 182.371,265.528 183.957 C 256.345 185.863,254.164 184.130,261.914 181.085 C 266.943 179.110,268.793 176.890,267.968 173.824 C 266.794 169.465,262.199 169.253,258.537 173.389 C 257.658 174.383,256.770 175.147,256.565 175.088 C 256.360 175.029,256.299 175.155,256.431 175.367 C 256.802 175.968,253.009 179.687,252.025 179.688 C 250.967 179.688,250.865 177.799,251.762 174.840 C 252.999 170.764,252.013 167.467,249.293 166.579 C 248.597 166.351,248.120 166.073,248.232 165.960 C 248.345 165.847,248.174 165.755,247.852 165.755 C 247.529 165.755,247.266 165.902,247.266 166.081 C 247.266 166.260,247.005 166.406,246.686 166.406 C 245.072 166.406,243.550 168.605,243.668 170.769 C 243.843 174.007,243.925 174.547,244.213 174.369 C 244.361 174.278,244.594 174.954,244.731 175.871 C 245.612 181.750,243.911 182.346,240.528 177.344 C 239.293 175.518,237.536 172.983,236.622 171.711 C 235.708 170.439,235.020 169.209,235.091 168.977 C 235.163 168.745,235.096 168.680,234.942 168.834 C 234.788 168.988,233.923 168.680,233.020 168.150 C 231.094 167.022,228.678 166.888,226.750 167.803 C 225.630 168.335,221.893 171.928,221.893 172.474 C 221.893 172.579,221.199 174.120,220.350 175.899 C 219.501 177.678,218.686 179.609,218.540 180.191 C 218.206 181.524,217.960 181.516,216.346 180.118 C 210.188 174.785,208.172 173.029,203.356 168.801 C 197.912 164.022,187.358 153.917,187.580 153.697 C 187.644 153.635,189.277 153.762,191.211 153.981 C 204.253 155.455,208.514 151.971,204.439 143.164 C 200.894 135.501,200.471 132.919,202.830 133.347 C 204.210 133.597,206.668 135.186,206.384 135.645 C 206.244 135.872,206.300 135.953,206.508 135.824 C 206.717 135.695,207.566 135.823,208.394 136.107 C 211.137 137.051,214.063 135.326,214.063 132.765 C 214.063 130.036,212.331 128.909,208.125 128.900 C 206.020 128.896,205.427 128.787,205.859 128.484 C 206.319 128.163,206.256 128.127,205.570 128.320 C 205.088 128.455,204.509 128.451,204.281 128.311 C 203.443 127.793,204.822 126.937,208.114 125.933 C 213.031 124.433,214.685 122.052,213.067 118.804 C 212.678 118.022,212.395 117.238,212.439 117.061 C 212.483 116.884,212.354 116.841,212.152 116.966 C 211.950 117.091,211.305 117.011,210.719 116.788 C 208.814 116.064,206.696 117.233,203.893 120.555 C 202.291 122.454,200.391 123.582,200.391 122.633 C 200.391 122.406,200.566 122.328,200.781 122.461 C 200.996 122.594,201.172 122.516,201.172 122.289 C 201.172 122.061,201.015 121.875,200.822 121.875 C 200.468 121.875,200.604 121.194,201.760 117.188 C 202.826 113.491,201.230 110.547,198.159 110.547 C 195.246 110.547,193.615 113.835,194.471 117.983 C 195.815 124.487,194.452 125.110,191.202 119.475 C 190.172 117.688,188.923 116.072,188.261 115.670 C 187.629 115.286,187.193 114.891,187.291 114.792 C 187.389 114.694,186.878 114.683,186.155 114.767 C 182.189 115.230,180.834 119.486,183.789 122.196 C 184.648 122.983,185.303 123.774,185.244 123.952 C 185.185 124.131,185.301 124.175,185.502 124.051 C 186.020 123.731,187.149 124.229,186.883 124.660 C 186.761 124.858,186.806 124.994,186.983 124.963 C 187.826 124.817,188.395 125.082,189.276 126.034 C 190.850 127.731,190.575 127.864,186.107 127.565 C 180.721 127.204,178.067 128.992,179.275 132.168 C 179.474 132.693,179.517 133.243,179.370 133.391 C 179.222 133.538,179.365 133.600,179.688 133.529 C 180.010 133.457,180.229 133.618,180.176 133.887 C 180.122 134.155,180.210 134.345,180.371 134.309 C 180.532 134.273,181.285 134.373,182.044 134.532 C 182.991 134.730,184.393 134.567,186.512 134.012 C 189.839 133.141,191.189 132.998,190.846 133.553 C 190.727 133.745,190.901 134.007,191.233 134.134 C 191.643 134.292,191.744 134.211,191.547 133.882 C 191.343 133.543,191.448 133.554,191.897 133.918 C 192.783 134.636,193.249 136.381,193.519 139.990 L 193.748 143.066 192.528 142.822 C 191.858 142.688,191.144 142.578,190.944 142.578 C 190.743 142.578,190.686 142.404,190.818 142.192 C 190.955 141.970,190.796 141.906,190.443 142.041 C 189.339 142.465,178.067 139.191,178.886 138.684 C 179.129 138.534,178.789 138.411,178.130 138.411 C 176.756 138.411,172.396 135.583,172.568 134.803 C 172.627 134.536,172.507 134.421,172.301 134.549 C 171.099 135.291,169.125 130.673,167.774 123.960 C 166.261 116.444,163.684 111.791,158.699 107.578 C 155.952 105.256,155.500 104.714,155.473 103.711 C 155.321 98.054,147.990 93.867,142.636 96.379 L 140.936 97.176 138.534 96.233 C 132.098 93.707,126.555 92.745,122.461 93.444 M181.631 275.257 C 181.851 275.366,182.031 275.627,182.031 275.837 C 182.031 276.046,181.893 276.133,181.724 276.028 C 181.556 275.924,181.417 276.175,181.417 276.586 C 181.417 277.058,181.554 277.196,181.789 276.961 C 182.024 276.726,182.352 276.836,182.681 277.260 C 183.090 277.787,183.085 277.642,182.655 276.575 C 182.354 275.831,181.911 275.185,181.670 275.140 C 181.411 275.092,181.395 275.140,181.631 275.257 " stroke="black" stroke-width="3" fill="url(#gradient)" fill-rule="evenodd">
</path></g></svg>